<svg xmlns="http://www.w3.org/2000/svg" width="1200" height="760" viewBox="0 0 1200 760" role="img" aria-label="Gamecast Score Bug app concept mockup">
<rect width="1200" height="760" fill="#eaf1ed"/><rect x="365" y="30" width="470" height="700" rx="52" fill="#0b0e0c"/><rect x="383" y="48" width="434" height="664" rx="40" fill="#0f1412"/>
<rect x="525" y="63" width="150" height="18" rx="9" fill="#050706"/><text x="420" y="112" fill="#f5f8f6" font-family="Arial,sans-serif" font-size="24" font-weight="700">Gamecast Score Bug</text><rect x="410" y="155" width="380" height="230" rx="24" fill="#18211d"/><text x="440" y="195" fill="#3ddc84" font-family="Arial,sans-serif" font-size="15" font-weight="700" text-anchor="start">LIVE · 7:42 3RD</text><text x="440" y="245" fill="#f5f8f6" font-family="Arial,sans-serif" font-size="20" font-weight="700" text-anchor="start">KNICKS</text><text x="760" y="245" fill="#f5f8f6" font-family="Arial,sans-serif" font-size="30" font-weight="700" text-anchor="end">86</text><line x1="440" y1="270" x2="760" y2="270" stroke="#23302a" stroke-width="2"/><text x="440" y="315" fill="#f5f8f6" font-family="Arial,sans-serif" font-size="20" font-weight="700" text-anchor="start">NETS</text><text x="760" y="315" fill="#f5f8f6" font-family="Arial,sans-serif" font-size="30" font-weight="700" text-anchor="end">82</text><circle cx="455" cy="350" r="6" fill="#ffb35c"/><text x="472" y="356" fill="#a8b7af" font-family="Arial,sans-serif" font-size="14" font-weight="400" text-anchor="start">Possession</text><rect x="410" y="420" width="380" height="150" rx="24" fill="#23302a"/><text x="440" y="458" fill="#a8b7af" font-family="Arial,sans-serif" font-size="17" font-weight="400" text-anchor="start">Game leaders</text><text x="440" y="500" fill="#f5f8f6" font-family="Arial,sans-serif" font-size="19" font-weight="600" text-anchor="start">J. Brunson</text><text x="760" y="500" fill="#3ddc84" font-family="Arial,sans-serif" font-size="18" font-weight="700" text-anchor="end">28 PTS</text><text x="440" y="538" fill="#f5f8f6" font-family="Arial,sans-serif" font-size="19" font-weight="600" text-anchor="start">M. Bridges</text><text x="760" y="538" fill="#f5f8f6" font-family="Arial,sans-serif" font-size="18" font-weight="700" text-anchor="end">22 PTS</text></svg>