<svg xmlns="http://www.w3.org/2000/svg" viewBox="0 0 420 420" role="img" aria-labelledby="t d"><title id="t">Settings Screen preview</title><desc id="d">Concept mockup for lesson 14: Settings Screen</desc><style>.bg{fill:#eef4f0}.phone{fill:#fff;stroke:#cbd8d1;stroke-width:3}.field{fill:#f0f4f2;stroke:#dce5e0}.accent{fill:#3ddc84}.line{fill:#dce5e0}.title{font:700 18px Arial;fill:#17201b}.small{font:700 11px monospace;fill:#607067}.big{font:700 28px Arial;fill:#17201b;text-anchor:middle}.muted{font:14px Arial;fill:#75827b}.center{text-anchor:middle}.row{font:15px Arial;fill:#26322c}.button{font:700 12px Arial;fill:#102117;text-anchor:middle}</style><rect width="420" height="420" rx="32" class="bg"/><rect x="52" y="28" width="316" height="364" rx="36" class="phone"/><rect x="166" y="42" width="88" height="8" rx="4" fill="#d7e1dc"/><text x="74" y="92" class="small">LESSON 014</text><text x="74" y="122" class="title">Settings Screen</text><text x="82" y="165" class="row">Setting 1</text><rect x="278" y="146" width="58" height="30" rx="15" class="field"/><circle cx="322" cy="161" r="11" class="accent"/><text x="82" y="225" class="row">Setting 2</text><rect x="278" y="206" width="58" height="30" rx="15" class="field"/><circle cx="292" cy="221" r="11" class="accent"/><text x="82" y="285" class="row">Setting 3</text><rect x="278" y="266" width="58" height="30" rx="15" class="field"/><circle cx="322" cy="281" r="11" class="accent"/><text x="82" y="345" class="row">Setting 4</text><rect x="278" y="326" width="58" height="30" rx="15" class="field"/><circle cx="292" cy="341" r="11" class="accent"/><circle cx="210" cy="374" r="5" fill="#c7d2cc"/></svg>