<svg xmlns="http://www.w3.org/2000/svg" viewBox="0 0 420 760" role="img" aria-labelledby="t d">
<title id="t">Calculator Keypad finished product</title><desc id="d">Finished Android app screen showing the expected result</desc>
<style>
.bg{fill:#eef4f0}.phone{fill:#ffffff;stroke:#c8d6cf;stroke-width:3}.txt{font-family:Arial,sans-serif;fill:#18211c}.muted{font-family:Arial,sans-serif;fill:#65736b}.mono{font-family:monospace;fill:#65736b}.line{stroke:#d9e4de;stroke-width:2}.card{fill:#f7faf8;stroke:#d9e4de;stroke-width:1.5}.accent{fill:#3ddc84}.accent2{fill:#dff7e9}.dark{fill:#26322c}.white{fill:white;font-family:Arial,sans-serif}.blue{fill:#4b75e8}.red{fill:#d64b4b}.amber{fill:#f0a23a}
</style>
<rect width="420" height="760" rx="32" class="bg"/>
<rect x="48" y="18" width="324" height="724" rx="40" class="phone"/>
<rect x="166" y="31" width="88" height="8" rx="4" fill="#d4ddd8"/>
<text x="72" y="72" class="mono" font-size="11">9:41</text><text x="326" y="72" class="mono" font-size="11">▮▮ ᴡɪғɪ</text>
<text x="72" y="116" class="txt" font-size="24" font-weight="700" text-anchor="start">Calculator</text><rect x="72" y="165" width="276" height="92" rx="16" class="card"/><text x="326" y="225" class="txt" font-size="38" font-weight="600" text-anchor="end">12,345</text><rect x="72" y="285" width="64" height="56" rx="18"  fill="#ffd9d9"/><text x="104.0" y="320" class="txt" font-size="20" font-weight="700" text-anchor="middle">C</text><rect x="142" y="285" width="64" height="56" rx="18"  fill="#e8eeeb"/><text x="174.0" y="320" class="txt" font-size="20" font-weight="700" text-anchor="middle">±</text><rect x="212" y="285" width="64" height="56" rx="18"  fill="#e8eeeb"/><text x="244.0" y="320" class="txt" font-size="20" font-weight="700" text-anchor="middle">%</text><rect x="282" y="285" width="64" height="56" rx="18"  fill="#3ddc84"/><text x="314.0" y="320" class="txt" font-size="20" font-weight="700" text-anchor="middle">÷</text><rect x="72" y="353" width="64" height="56" rx="18"  fill="#e8eeeb"/><text x="104.0" y="388" class="txt" font-size="20" font-weight="700" text-anchor="middle">7</text><rect x="142" y="353" width="64" height="56" rx="18"  fill="#e8eeeb"/><text x="174.0" y="388" class="txt" font-size="20" font-weight="700" text-anchor="middle">8</text><rect x="212" y="353" width="64" height="56" rx="18"  fill="#e8eeeb"/><text x="244.0" y="388" class="txt" font-size="20" font-weight="700" text-anchor="middle">9</text><rect x="282" y="353" width="64" height="56" rx="18"  fill="#3ddc84"/><text x="314.0" y="388" class="txt" font-size="20" font-weight="700" text-anchor="middle">×</text><rect x="72" y="421" width="64" height="56" rx="18"  fill="#e8eeeb"/><text x="104.0" y="456" class="txt" font-size="20" font-weight="700" text-anchor="middle">4</text><rect x="142" y="421" width="64" height="56" rx="18"  fill="#e8eeeb"/><text x="174.0" y="456" class="txt" font-size="20" font-weight="700" text-anchor="middle">5</text><rect x="212" y="421" width="64" height="56" rx="18"  fill="#e8eeeb"/><text x="244.0" y="456" class="txt" font-size="20" font-weight="700" text-anchor="middle">6</text><rect x="282" y="421" width="64" height="56" rx="18"  fill="#3ddc84"/><text x="314.0" y="456" class="txt" font-size="20" font-weight="700" text-anchor="middle">−</text><rect x="72" y="489" width="64" height="56" rx="18"  fill="#e8eeeb"/><text x="104.0" y="524" class="txt" font-size="20" font-weight="700" text-anchor="middle">1</text><rect x="142" y="489" width="64" height="56" rx="18"  fill="#e8eeeb"/><text x="174.0" y="524" class="txt" font-size="20" font-weight="700" text-anchor="middle">2</text><rect x="212" y="489" width="64" height="56" rx="18"  fill="#e8eeeb"/><text x="244.0" y="524" class="txt" font-size="20" font-weight="700" text-anchor="middle">3</text><rect x="282" y="489" width="64" height="56" rx="18"  fill="#3ddc84"/><text x="314.0" y="524" class="txt" font-size="20" font-weight="700" text-anchor="middle">+</text><rect x="72" y="557" width="64" height="56" rx="18"  fill="#e8eeeb"/><text x="104.0" y="592" class="txt" font-size="20" font-weight="700" text-anchor="middle">0</text><rect x="142" y="557" width="64" height="56" rx="18"  fill="#e8eeeb"/><text x="174.0" y="592" class="txt" font-size="20" font-weight="700" text-anchor="middle">.</text><rect x="212" y="557" width="64" height="56" rx="18"  fill="#3ddc84"/><text x="244.0" y="592" class="txt" font-size="20" font-weight="700" text-anchor="middle">=</text>
<rect x="177" y="718" width="66" height="5" rx="3" fill="#b8c4be"/>
</svg>